<svg width="671" height="170" viewBox="0 0 671 170" fill="none" xmlns="http://www.w3.org/2000/svg">
<g clip-path="url(#clip0_32_246)">
<path d="M102.307 72.0611H74.4751C72.7371 72.0611 71.3282 73.4789 71.3282 75.2279C71.3282 76.977 72.7371 78.3948 74.4751 78.3948H102.307C104.045 78.3948 105.454 76.977 105.454 75.2279C105.454 73.4789 104.045 72.0611 102.307 72.0611Z" fill="#2670F6"/>
<path d="M102.307 90.6145H74.4751C72.7371 90.6145 71.3282 92.0324 71.3282 93.7814C71.3282 95.5304 72.7371 96.9482 74.4751 96.9482H102.307C104.045 96.9482 105.454 95.5304 105.454 93.7814C105.454 92.0324 104.045 90.6145 102.307 90.6145Z" fill="#2670F6"/>
<path d="M111.091 107.265C110.989 107.386 110.878 107.498 110.767 107.601C109.869 108.431 105.787 112.06 102.964 112.06H67.5333C67.3575 112.06 67.1724 112.069 66.9965 112.097C65.4878 112.274 57.4631 112.638 57.4631 100.698V68.3207C57.4631 56.3808 65.4971 56.7539 66.9965 56.9218C67.1724 56.9405 67.3482 56.9592 67.5333 56.9592H102.964C105.797 56.9592 109.869 60.5878 110.767 61.418C110.887 61.5299 110.989 61.6325 111.091 61.7538L125.095 77.6301C126.224 78.908 127.927 79.4863 129.593 79.1505L160.961 72.8448C163.191 72.397 164.793 70.4195 164.793 68.1341V63.9272C164.793 56.2969 161.785 48.9744 156.426 43.5734L127.52 14.442C122.161 9.04109 114.904 6.00948 107.324 6.00948H66.4504C58.8792 6.00948 51.6135 9.04109 46.2544 14.442L17.3487 43.5734C12.0081 48.9557 9 56.2689 9 63.9085V105.101C9 112.731 12.0081 120.054 17.3672 125.455L46.2729 154.586C51.632 159.987 58.8885 163.019 66.4689 163.019H107.342C114.914 163.019 122.179 159.987 127.538 154.586L156.444 125.455C161.803 120.054 164.811 112.741 164.811 105.101V101.398C164.811 99.1312 163.238 97.1723 161.044 96.6965L129.649 89.9151C127.973 89.5513 126.224 90.1296 125.086 91.4169L111.119 107.256L111.091 107.265Z" fill="#2670F6"/>
<path d="M235.396 128.831C229.092 128.831 223.243 127.787 217.837 125.716C212.432 123.636 207.749 120.679 203.778 116.836C199.807 112.992 196.716 108.487 194.504 103.31C192.282 98.1329 191.181 92.4521 191.181 86.2583C191.181 80.0645 192.292 74.3838 194.504 69.2067C196.725 64.0297 199.835 59.5242 203.833 55.6811C207.841 51.8379 212.543 48.8809 217.948 46.8008C223.354 44.7206 229.213 43.6852 235.507 43.6852C242.587 43.6852 249.002 44.9165 254.759 47.3885C260.516 49.8604 265.338 53.489 269.225 58.2649L256.971 69.5518C254.25 66.3337 251.158 63.9084 247.696 62.2573C244.235 60.6156 240.477 59.7854 236.432 59.7854C232.619 59.7854 229.12 60.429 225.927 61.7256C222.734 63.0222 219.976 64.8412 217.643 67.1918C215.311 69.5425 213.496 72.3316 212.219 75.5404C210.933 78.7586 210.294 82.3219 210.294 86.2397C210.294 90.1574 210.933 93.7301 212.219 96.9389C213.506 100.157 215.311 102.937 217.643 105.288C219.976 107.638 222.734 109.466 225.927 110.754C229.111 112.05 232.619 112.694 236.432 112.694C240.477 112.694 244.226 111.854 247.696 110.166C251.158 108.478 254.25 106.034 256.971 102.816L269.225 114.102C265.338 118.888 260.516 122.526 254.759 125.035C249.002 127.544 242.55 128.794 235.386 128.794L235.396 128.831Z" fill="#2670F6"/>
<path d="M305.406 128.365C300.112 128.365 295.447 127.348 291.402 125.305C287.357 123.272 284.21 120.128 281.952 115.903C279.694 111.668 278.564 106.342 278.564 99.9146V64.1696H296.77V97.0975C296.77 102.433 297.881 106.332 300.093 108.795C302.315 111.267 305.443 112.498 309.488 112.498C312.292 112.498 314.773 111.873 316.957 110.614C319.132 109.364 320.863 107.48 322.15 104.97C323.436 102.461 324.075 99.3269 324.075 95.5677V64.1696H342.161V127.432H324.889V109.914L328.036 115.091C325.861 119.485 322.742 122.796 318.707 125.026C314.662 127.255 310.228 128.374 305.406 128.374V128.365Z" fill="#2670F6"/>
<path d="M355.369 127.423V40.1686H373.575V127.423H355.369Z" fill="#2670F6"/>
<path d="M407.645 127.423L381.275 64.1602H399.944L421.88 118.608H412.551L435.422 64.1602H452.804L426.314 127.423H407.645Z" fill="#2670F6"/>
<path d="M477.535 128.365C472.713 128.365 468.548 127.526 465.049 125.837C461.55 124.149 458.848 121.863 456.941 118.962C455.034 116.061 454.081 112.806 454.081 109.205C454.081 105.605 454.997 102.247 456.821 99.3829C458.644 96.5192 461.55 94.3084 465.512 92.7413C469.483 91.1742 474.694 90.3906 481.145 90.3906H497.713V100.978H483.015C478.738 100.978 475.795 101.687 474.203 103.095C472.611 104.504 471.815 106.267 471.815 108.384C471.815 110.735 472.731 112.601 474.555 113.972C476.378 115.343 478.849 116.033 481.959 116.033C485.069 116.033 487.855 115.324 490.299 113.916C492.752 112.507 494.482 110.353 495.491 107.452L498.296 116.033C496.972 119.951 494.566 122.992 491.058 125.147C487.559 127.302 483.042 128.384 477.526 128.384L477.535 128.365ZM496.667 127.423V115.073L495.501 112.367V90.2601C495.501 86.3423 494.316 83.2827 491.946 81.0906C489.568 78.8985 485.939 77.7978 481.034 77.7978C477.692 77.7978 474.397 78.3295 471.176 79.3836C467.946 80.4376 465.169 81.8742 462.837 83.6745L456.423 70.8578C459.847 68.3485 463.966 66.4456 468.788 65.1583C473.611 63.8617 478.507 63.2181 483.487 63.2181C493.057 63.2181 500.48 65.4941 505.774 70.0369C511.059 74.589 513.707 81.6783 513.707 91.3234V127.423H496.667Z" fill="#2670F6"/>
<path d="M562.753 63.2181C567.733 63.2181 572.185 64.2162 576.109 66.2124C580.033 68.2086 583.125 71.2682 585.383 75.3819C587.642 79.4955 588.771 84.7658 588.771 91.2022V127.423H570.565V94.0286C570.565 88.9355 569.454 85.1669 567.242 82.7417C565.021 80.3164 561.892 79.0944 557.847 79.0944C554.969 79.0944 552.377 79.7194 550.091 80.9787C547.796 82.238 546.009 84.0756 544.723 86.5009C543.436 88.9355 542.797 92.1443 542.797 96.146V127.423H524.591V64.1602H541.974V81.6783L538.706 76.3893C540.965 72.1544 544.186 68.9082 548.388 66.6322C552.59 64.3561 557.375 63.2181 562.734 63.2181H562.753Z" fill="#2670F6"/>
<path d="M623.665 128.365C618.843 128.365 614.678 127.526 611.179 125.837C607.68 124.149 604.978 121.863 603.071 118.962C601.164 116.061 600.211 112.806 600.211 109.205C600.211 105.605 601.127 102.247 602.951 99.3829C604.774 96.5192 607.68 94.3084 611.642 92.7413C615.612 91.1742 620.823 90.3906 627.275 90.3906H643.842V100.978H629.144C624.868 100.978 621.925 101.687 620.333 103.095C618.741 104.504 617.945 106.267 617.945 108.384C617.945 110.735 618.861 112.601 620.685 113.972C622.508 115.343 624.979 116.033 628.089 116.033C631.199 116.033 633.985 115.324 636.429 113.916C638.881 112.507 640.612 110.353 641.621 107.452L644.426 116.033C643.102 119.951 640.696 122.992 637.188 125.147C633.689 127.302 629.172 128.384 623.656 128.384L623.665 128.365ZM642.806 127.423V115.073L641.64 112.367V90.2601C641.64 86.3423 640.455 83.2827 638.085 81.0906C635.707 78.8985 632.078 77.7978 627.173 77.7978C623.832 77.7978 620.536 78.3295 617.315 79.3836C614.085 80.4376 611.308 81.8742 608.976 83.6745L602.562 70.8578C605.986 68.3485 610.105 66.4456 614.928 65.1583C619.75 63.8617 624.646 63.2181 629.626 63.2181C639.196 63.2181 646.619 65.4941 651.913 70.0369C657.198 74.589 659.846 81.6783 659.846 91.3234V127.423H642.806Z" fill="#2670F6"/>
</g>
<defs>
<clipPath id="clip0_32_246">
<rect width="650.836" height="157" fill="white" transform="translate(9 6)"/>
</clipPath>
</defs>
</svg>
