<svg width="170" height="170" viewBox="0 0 170 170" fill="none" xmlns="http://www.w3.org/2000/svg">
<g clip-path="url(#clip0_32_275)">
<g clip-path="url(#clip1_32_275)">
<path d="M102.307 72.0611H74.4752C72.7372 72.0611 71.3282 73.4789 71.3282 75.2279C71.3282 76.977 72.7372 78.3948 74.4752 78.3948H102.307C104.045 78.3948 105.454 76.977 105.454 75.2279C105.454 73.4789 104.045 72.0611 102.307 72.0611Z" fill="#2670F6"/>
<path d="M102.307 90.6145H74.4752C72.7372 90.6145 71.3282 92.0324 71.3282 93.7814C71.3282 95.5304 72.7372 96.9482 74.4752 96.9482H102.307C104.045 96.9482 105.454 95.5304 105.454 93.7814C105.454 92.0324 104.045 90.6145 102.307 90.6145Z" fill="#2670F6"/>
<path d="M111.091 107.265C110.989 107.386 110.878 107.498 110.767 107.601C109.869 108.431 105.787 112.06 102.964 112.06H67.5333C67.3575 112.06 67.1724 112.069 66.9965 112.097C65.4878 112.274 57.4631 112.638 57.4631 100.698V68.3207C57.4631 56.3808 65.4971 56.7539 66.9965 56.9218C67.1724 56.9405 67.3482 56.9592 67.5333 56.9592H102.964C105.797 56.9592 109.869 60.5878 110.767 61.418C110.887 61.5299 110.989 61.6325 111.091 61.7538L125.095 77.6301C126.224 78.908 127.927 79.4863 129.593 79.1505L160.961 72.8448C163.191 72.397 164.793 70.4195 164.793 68.1341V63.9272C164.793 56.2969 161.785 48.9744 156.426 43.5734L127.52 14.442C122.161 9.04109 114.904 6.00948 107.324 6.00948H66.4504C58.8792 6.00948 51.6135 9.04109 46.2544 14.442L17.3487 43.5734C12.0081 48.9557 9 56.2689 9 63.9085V105.101C9 112.731 12.0081 120.054 17.3672 125.455L46.2729 154.586C51.632 159.987 58.8885 163.019 66.4689 163.019H107.342C114.914 163.019 122.179 159.987 127.538 154.586L156.444 125.455C161.803 120.054 164.811 112.741 164.811 105.101V101.398C164.811 99.1312 163.238 97.1723 161.044 96.6965L129.649 89.9151C127.973 89.5513 126.224 90.1296 125.086 91.4169L111.119 107.256L111.091 107.265Z" fill="#2670F6"/>
</g>
</g>
<defs>
<clipPath id="clip0_32_275">
<rect width="170" height="170" fill="white"/>
</clipPath>
<clipPath id="clip1_32_275">
<rect width="650.836" height="157" fill="white" transform="translate(9 6)"/>
</clipPath>
</defs>
</svg>
